<svg viewBox="0 0 512 512" xmlns="http://www.w3.org/2000/svg">
    <!-- Background square -->
    <rect width="512" height="512" fill="#f7df1e"/>
    
    <!-- JS text -->
    <path d="M350 405c12 20 27 35 54 35 23 0 38-11 38-27 0-19-15-25-40-36l-14-6c-39-17-65-38-65-83 0-41 31-73 80-73 35 0 60 12 78 43l-43 27c-9-17-19-23-35-23-16 0-26 10-26 23 0 16 10 23 33 33l14 6c46 20 72 40 72 86 0 49-39 76-91 76-51 0-84-24-100-56zm-193 5c9 15 16 28 35 28 18 0 29-7 29-34V203h54v202c0 56-33 81-81 81-43 0-68-22-81-49z" fill="#000"/>
</svg>
